<?xml version="1.0" encoding="utf-8"?><!-- Uploaded to: SVG Repo, www.svgrepo.com, Generator: SVG Repo Mixer Tools -->
<svg width="800px" height="800px" viewBox="0 0 24 24" fill="none" xmlns="http://www.w3.org/2000/svg">
    <path d="M15.069 20.278c3.122.316 4.783-1.22 5.624-5.02l.98-4.4c.981-4.4-.3-6.58-4.493-7.61l-1.67-.411c-3.343-.832-5.334-.148-6.505 2.4m6.064 15.041a10.09 10.09 0 0 1-1.621-.284l-1.681-.421c-4.173-1.042-5.464-3.21-4.483-7.61l.98-4.41c.2-.895.44-1.674.74-2.316m6.065 15.041c-.62.442-1.401.81-2.352 1.137l-1.58.547c-3.973 1.348-6.065.221-7.356-3.957l-1.28-4.158c-1.282-4.179-.22-6.39 3.752-7.737l1.581-.547c.41-.137.8-.253 1.17-.326m3.643 3.61 4.854 1.295m-5.834 2.779 2.902.778" stroke="#000000" stroke-width="2" stroke-linecap="round"/>
</svg>
