<svg width="21" height="16" viewBox="0 0 21 16" fill="none" xmlns="http://www.w3.org/2000/svg">
<path d="M1.89394 0C1.39164 0 0.909905 0.199539 0.554722 0.554722C0.199539 0.909904 0 1.39164 0 1.89394V12.3106H1.89394C1.89394 13.0641 2.19325 13.7867 2.72602 14.3194C3.2588 14.8522 3.98139 15.1515 4.73485 15.1515C5.4883 15.1515 6.2109 14.8522 6.74368 14.3194C7.27645 13.7867 7.57576 13.0641 7.57576 12.3106H13.2576C13.2576 13.0641 13.5569 13.7867 14.0897 14.3194C14.6224 14.8522 15.345 15.1515 16.0985 15.1515C16.8519 15.1515 17.5745 14.8522 18.1073 14.3194C18.6401 13.7867 18.9394 13.0641 18.9394 12.3106H20.8333V7.57576L17.9924 3.78788H15.1515V0H1.89394ZM15.1515 5.20833H17.5189L19.3845 7.57576H15.1515V5.20833ZM4.73485 10.8902C5.11158 10.8902 5.47288 11.0398 5.73926 11.3062C6.00565 11.5726 6.1553 11.9339 6.1553 12.3106C6.1553 12.6873 6.00565 13.0486 5.73926 13.315C5.47288 13.5814 5.11158 13.7311 4.73485 13.7311C4.35812 13.7311 3.99682 13.5814 3.73044 13.315C3.46405 13.0486 3.31439 12.6873 3.31439 12.3106C3.31439 11.9339 3.46405 11.5726 3.73044 11.3062C3.99682 11.0398 4.35812 10.8902 4.73485 10.8902ZM16.0985 10.8902C16.4752 10.8902 16.8365 11.0398 17.1029 11.3062C17.3693 11.5726 17.5189 11.9339 17.5189 12.3106C17.5189 12.6873 17.3693 13.0486 17.1029 13.315C16.8365 13.5814 16.4752 13.7311 16.0985 13.7311C15.7218 13.7311 15.3605 13.5814 15.0941 13.315C14.8277 13.0486 14.678 12.6873 14.678 12.3106C14.678 11.9339 14.8277 11.5726 15.0941 11.3062C15.3605 11.0398 15.7218 10.8902 16.0985 10.8902Z" fill="white"/>
</svg>
