<svg width="280px" height="346px" viewBox="0 0 280 346" version="1.1" xmlns="http://www.w3.org/2000/svg"
>
    <path d="M94.0882597,30.7565679 C94.1101646,30.7784808 94.1320292,30.8003937 94.1538462,30.8223066 C92.8376725,32.0347854 91.6869066,33.5272645 89.8461538,33.86121 C90.7937044,32.3199234 92.0248112,31.1048758 93.4945778,30.1672598 C93.5104901,30.1830702 93.5264148,30.1988806 93.5423492,30.214691 C93.5451016,30.1756749 93.5492784,30.1350439 93.5547609,30.0929254 C103.235968,21.5794256 114.3649,15.671203 126.397154,11.3949379 C126.835566,11.2388164 127.245072,10.9997554 127.666623,10.7997247 C133.623733,9.37267678 139.532665,7.74559815 145.668031,7.16746077 C165.745876,5.27204834 184.262781,10.2996481 201.746284,19.9840591 C203.591471,21.006167 205.41016,22.0795022 207.240893,23.1284434 C208.018955,24.4140063 210.047215,24.4432791 210.461538,26.5948283 C200.953769,20.9549396 191.289424,16.3713103 180.957825,13.3976839 C173.177208,11.1583163 165.297828,9.42146474 157.131794,9.58002563 C155.011998,10.0142385 152.892201,10.0093597 150.777222,9.58246502 C143.119457,9.74590471 135.78448,11.3315136 128.427822,13.5830781 C120.93386,15.8785519 113.921669,19.052209 107.017878,22.6259274 C106.524061,22.8820642 106.102511,23.2796861 105.649645,23.6090049 C104.842677,24.4432791 103.903222,25.0531286 102.775876,25.343417 C99.6419493,26.6655709 97.1873213,29.1049691 94.2268328,30.7149719 C94.1776039,30.7321902 94.1314582,30.746007 94.0882597,30.7565679 L94.0882597,30.7565679 Z M51.7299123,187.160142 C52.8721638,189.371217 51.9991054,191.613671 51.8196434,193.844055 C51.7299123,194.988214 51.6062291,196.129959 51.4970968,197.269289 C49.2538215,207.120156 46.3921299,216.761018 41.6994406,225.774284 C38.0835234,232.716477 33.8128124,239.209697 28.2494898,244.778418 C27.6359237,245.391532 27.2381971,246.752936 25.8461538,246.08189 C39.5531718,228.651577 47.1609063,208.566044 51.7299123,187.160142 Z M62.326677,87.2971778 C60.320719,96.8336441 59.7521201,106.505072 59.6691487,116.21024 C59.6301032,120.762776 59.1688793,125.194811 57.4093955,129.465374 C55.4839686,134.140821 52.3969408,137.399174 47.1721767,138.288473 C45.2662725,138.722277 43.3262037,138.358363 41.4056575,138.507785 C40.4661273,138.577676 39.5412391,138.457174 40.2513775,137.109971 C48.8316067,137.859488 53.8513824,134.461354 55.9159085,126.341982 C56.4796266,124.11994 57.001859,121.803906 56.987217,119.533663 C56.9286488,110.091188 57.7730059,100.747524 59.5324897,91.4737499 C59.7960462,89.0275752 59.6984327,86.5163299 60.7843832,84.2123466 C61.1699567,83.3881183 61.4115501,82.1132154 62.7122504,82.6096804 C63.7664765,83.0121545 63.3272156,84.0605151 63.0807415,84.8702832 C62.8342673,85.6800514 62.8928354,86.5862206 62.326677,87.2971778 Z M40.6450072,31.3985765 C41.8705061,31.704014 41.5042926,32.7333625 41.5521636,33.519804 C42.1577324,43.4645612 42.6651655,53.4165334 43.3521151,63.3540755 C43.8786966,70.9491282 46.8706372,77.3753413 52.8952088,82.2070262 C54.8363799,82.6399298 55.8751817,84.1791425 56.9522803,85.6317745 C57.258655,86.0478429 57.5291264,86.7452987 56.5142602,86.8078292 C53.9579461,85.1315303 51.466258,83.3806759 49.1540863,81.3556491 C42.8183529,75.8072683 41.0303692,68.4142373 40.5349038,60.4488115 C39.929335,50.7613914 39.6804056,41.0787815 40.6450072,31.3985765 Z M71.2808246,179.226441 C71.4308376,179.176804 71.5942204,179.150609 71.7765461,179.15774 C73.205829,180.739151 74.1482913,182.475694 73.7572937,184.634815 C75.0842526,184.451185 76.4066551,184.418803 77.7245013,184.71016 C78.6624751,185.321357 80.3291824,184.612868 80.6153846,186.414026 C71.5675452,186.641042 62.5293259,186.720872 53.541613,185.363766 C45.3235196,180.040121 36.5739077,177.750005 27.319233,181.763944 C20.7558215,184.610373 14.8898778,184.271097 9.23076923,179.843041 C10.2264645,178.560776 10.9263372,179.97027 11.5997543,180.259653 C15.7581048,182.050832 19.8467085,182.691965 24.1205018,180.58895 C35.6094782,174.940997 46.3095946,176.816995 56.3242686,184.460692 C57.1852804,185.116793 58.0294568,185.17916 59.0131268,185.171676 C62.7626169,185.149224 66.5097019,185.201612 70.259192,185.226559 C70.3887398,185.111244 70.5220316,185.019958 70.6583323,184.947941 C71.0406784,183.363652 69.9277325,182.120376 69.591789,180.698091 C69.5610063,180.68036 69.5296177,180.661787 69.4976105,180.642356 C68.8966224,179.540714 68.2956343,178.439072 67.6923077,177.335055 C67.729694,177.271873 67.7674097,177.214266 67.8054325,177.161854 C67.7056749,177.152576 67.6062175,177.147379 67.5072589,177.148764 L64,172.444737 C64.0509608,172.434866 64.101735,172.42631 64.1523331,172.418993 C64.0550199,172.378085 63.9573895,172.338228 63.8593186,172.299848 C63.182015,171.600625 63.1602445,171.114209 64.2487681,170.990072 C65.3784137,170.858334 66.5588571,171.091409 67.6183534,170.465655 C68.4383745,169.860168 69.3793427,169.708163 70.3517571,169.672695 C70.9710061,169.578959 71.3411041,169.125477 71.6918506,168.646662 C71.8466629,168.68213 71.9942183,168.661862 72.132098,168.583326 C73.0730661,168.122245 74.0599942,167.478757 74.4615385,169.211614 C74.1180488,169.8247 73.7769781,170.437787 73.4359073,171.050874 C72.4946903,173.324156 70.6589933,173.51476 68.7695402,173.587304 C69.5680278,174.540987 70.3746177,175.491316 70.0985326,176.939371 C70.017759,177.00837 69.936032,177.065597 69.8534845,177.112723 C69.9354962,177.14294 70.0172565,177.168922 70.0985987,177.187853 C71.3021772,177.423554 71.5629476,178.17536 71.2808246,179.226441 L71.2808246,179.226441 Z M86.8242482,35.4679646 C88.5578464,37.2407644 90.686869,38.6754279 91.6923077,41.2042035 C90.6820467,41.4626361 90.3878896,40.5400074 89.9153093,40.1100914 C85.1605726,35.8181771 79.3738749,33.6855039 73.252031,32.7097395 C62.7226522,31.0287196 52.026906,30.4369813 41.6156723,27.939604 C40.4969107,27.0580347 38.8284129,27.3164674 37.5384615,25.8576512 C44.1594082,26.6595171 50.4307418,27.4444761 56.7093089,28.1690536 C61.377245,28.7076562 66.0717035,29.0433772 70.725173,29.6834206 C76.4757038,30.4756254 81.8669772,32.3933406 86.8242482,35.4679646 Z M65.5709179,165.517675 C62.7480423,165.989612 61.018517,167.167071 62.668218,170.537367 C61.8627188,170.120251 61.3765166,169.867598 60.8878955,169.614945 C58.8584245,169.452865 57.6610608,167.829689 56.0669948,166.907267 C54.5164693,166.013447 52.9441735,165.172065 51.3307562,164.399805 C50.3390004,163.889732 49.3278933,163.417795 48.2998538,162.976844 C44.3691144,161.267861 40.2279293,160.247714 36.0528794,159.33721 C31.7496268,158.452925 27.4415365,157.723568 23.0560408,158.7747 C21.7353124,158.626921 20.3178273,160.638612 19.0769231,158.617387 C24.4348232,154.865728 30.3563309,155.552182 36.2899332,156.541342 C42.6661972,157.609159 48.7908939,159.463537 54.5479152,162.431018 C55.104266,162.714657 56.03313,163.98984 56.3185621,162.144996 C57.8981146,163.372508 58.8003705,165.79178 61.6353407,164.719196 C63.5414469,163.99699 65.5781746,163.620394 67.6923077,163.053117 C67.4407404,164.526131 66.1417822,164.688211 65.5709179,165.517675 Z M44.1267089,144.049951 C48.2719274,146.755087 53.1180516,146.954209 57.8461538,147.850255 C57.1645171,149.07898 55.9481688,148.632171 55.0449399,148.989132 C49.5725771,149.008559 44.6397429,147.554001 40.595686,143.646851 C39.8899632,143.010634 38.8903898,142.170439 39.6659624,141.318103 C40.4728469,140.43177 41.3664413,141.543935 42.1251536,142.039311 C42.9248123,142.563825 43.7003848,143.136906 44.1267089,144.049951 Z M20.6086192,162.766418 C18.8059344,163.313985 17.2789261,164.399554 16.3128596,165.915525 C13.3307586,170.582995 7.75250373,170.960792 3.19784786,168.14166 C2.72080759,167.847552 2.19102919,167.632351 1.68522267,167.381283 C1.12428084,166.938925 0.560941828,166.496568 0,166.051819 C6.21830386,169.385043 11.9116237,170.652338 16.6101108,163.811338 C19.1247603,160.284433 22.5695184,159.500145 26.6039847,160.432683 C27.0666418,160.573759 27.4741636,160.78896 27.6923077,161.252838 C27.1025996,162.613386 25.8440763,162.462745 24.7701364,162.359927 C23.331824,162.218851 21.9654272,162.333625 20.6086192,162.766418 Z M53.3054627,151.757292 C54.5265318,151.042156 55.6061355,149.957371 57.2292639,150.278699 C57.7603794,151.025244 57.0828349,151.319996 56.7328944,151.696892 C53.1664792,155.506926 53.1714429,155.586654 56.9860429,159.179248 C57.3434289,159.515072 58.1971846,159.732512 57.6884058,160.399329 C57.4774487,160.674753 56.7800495,160.602273 56.3035347,160.686833 C51.3075752,158.659808 50.4736744,156.178574 53.3054627,151.757292 Z M271.402531,244.312943 C256.101829,229.487839 248.885924,211.103172 247.624706,190.140225 C247.530836,188.552852 246.849682,186.739398 248.310674,185.313167 C250.558724,203.397196 255.413454,220.545637 266.514105,235.411628 C270.425327,240.649959 275.032146,245.248531 280,249.491147 C279.222569,250.515724 278.572705,249.582541 278.072068,249.2338 C275.809576,247.651237 273.619292,245.962849 271.402531,244.312943 Z M271.737448,117.819514 C272.494297,119.004087 271.426947,118.809065 270.898123,118.811473 C264.105893,118.811473 257.556242,117.797845 251.950227,113.613317 C247.176259,110.047559 245.533995,104.861441 244.922694,99.2756496 C244.139162,92.1152429 244.170698,84.8850139 242.865619,77.7607223 C241.863765,72.3025374 239.799412,67.2681022 237.424558,62.3131201 C237.220791,61.8869628 236.444536,61.4511747 237.359061,60.9576026 C238.564682,60.8540729 238.928551,61.8556631 239.51802,62.5635177 C239.971644,63.2232189 240.3719,63.9118121 240.757602,64.6148514 C241.490192,66.579509 243.059683,68.2046854 243.166418,70.4269635 C246.072522,78.9717797 246.826945,87.8440387 247.244182,96.7692665 C247.768154,108.005856 252.774998,114.05392 263.759004,116.598826 C266.378864,117.207966 268.989021,117.990458 271.737448,117.819514 Z M247.384615,62.7498962 C248.888025,59.1530809 250.594534,55.6497828 251.691743,51.8803203 C253.2255,46.6049911 253.379576,41.4207813 251.668398,36.0879031 C250.015582,30.9372636 248.119979,25.7818283 248.470152,20.1731942 C248.619559,17.7561343 248.95339,15.3390744 250.244361,13.32246 C250.937704,12.2386196 250.61321,13.7205075 250.88401,13.8715738 C249.523005,18.8735449 250.286382,23.7100626 251.787457,28.5489782 C253.139124,32.9131141 255.055738,37.1477647 255.333541,41.7948501 C255.788766,49.3865283 253.1578,56.0430346 249.163494,62.2439442 C247.835171,63.6994555 247.809492,63.709047 247.384615,62.7498962 Z M220.181471,172.525838 C225.370193,170.238552 230.692146,168.224482 235.311611,164.817731 C241.084126,160.557478 245.139178,155.119732 246.936578,148.117636 C247.108567,147.43822 247.280555,146.814415 248,146.52669 C246.89782,157.426361 240.648099,164.72827 231.476995,169.929067 C227.896728,171.960061 224.209877,173.816971 220.179048,174.846975 C219.471715,174.073263 219.590412,173.299551 220.181471,172.525838 Z M208.328903,176.273261 C210.642687,175.662215 212.95647,175.053575 215.270254,174.44253 C217.029414,173.908467 217.813706,174.343897 217.119815,176.246798 C215.416851,176.867466 213.713886,177.49054 211.66642,178.236304 C213.99242,179.932316 215.651405,182.061353 217.210216,184.276994 C217.518069,185.366772 217.869901,186.446927 218.126445,187.546328 C219.294332,192.598279 217.413008,195.942189 212.426279,197.719994 C211.172878,198.177076 209.909703,198.747224 208.817558,197.414472 C208.87864,196.505121 209.655603,196.406487 210.271308,196.353562 C215.377758,195.886858 217.178454,192.165254 216.047216,187.558356 C214.937968,183.913735 212.785441,181.123133 209.247575,179.443961 C208.548798,179.116787 207.876897,178.727065 207.483529,178.014981 C207.190336,177.163366 207.571487,176.629303 208.328903,176.273261 Z M248.615385,143.239997 C251.634107,142.119733 254.931255,142.377155 257.986612,141.44519 C259.625417,140.944646 261.484032,140.727744 262.018902,138.682665 C263.071547,137.204869 261.769784,135.700853 262.075076,134.213523 C265.362455,137.819822 264.363541,141.695462 259.657167,143.027862 C256.035189,144.050402 252.325287,144.634369 248.615385,143.239997 Z M261.933406,132.982206 C260.203447,132.823946 258.4284,133.207608 256.615385,132.361153 C263.952878,132.210086 270.080112,129.860153 273.846154,123.131673 C273.433242,127.589351 270.360133,129.879336 266.812412,131.617807 C265.319759,132.349163 263.56607,132.543392 261.933406,132.982206 Z M244.923077,183.779213 C244.69695,184.887398 243.77542,184.682999 243.070292,184.687925 C237.584881,184.724864 232.101901,184.722402 226.614058,184.712551 C225.840849,184.710088 225.05305,184.636209 224.615385,183.816152 C231.384615,183.298999 238.153846,183.35564 244.923077,183.779213 Z M251.076923,0 C249.993899,5.39943349 243.943819,10.9614717 237.908116,12.0351412 C235.092733,12.5373028 232.227032,12.7859924 229.438005,13.3957601 C222.767343,14.852029 217.680484,18.5728078 214.201389,25.2419929 C213.8899,22.8005307 215.200551,21.5857777 215.476099,20.081684 C219.927999,13.462715 226.378222,10.6745222 234.134304,10.2082292 C240.431179,9.8280211 245.319164,6.78635618 249.148086,1.87951936 C249.691994,1.18366677 249.833362,0.00239124601 251.076923,0 Z M108.251127,115.404812 C109.319536,112.785896 110.749708,110.466965 113.477405,109.217028 C117.292805,107.471878 121.928203,108.445638 124.513606,111.535959 C127.340186,114.91198 127.53795,119.368898 124.950134,122.868722 C124.335136,123.702014 123.529609,124.401978 122.813317,125.163845 C119.709386,128.051795 115.698634,128.199406 111.752999,125.570967 C108.154657,123.173469 106.833014,119.333186 108.251127,115.404812 Z M115.155858,109.588328 C113.144052,109.536531 111.257099,111.25762 111.391377,113.261241 C111.532722,115.361393 112.757709,116.710482 114.899082,116.955343 C116.859062,117.181368 118.668275,115.434381 118.76486,113.386026 C118.863802,111.318835 117.271318,109.644835 115.155858,109.588328 Z M189.200531,111.673765 C189.914498,104.435978 195.616561,101.405124 200.411038,102.375389 C203.980877,103.098188 206.510018,105.298436 207.536196,108.853625 C208.540591,112.335309 207.979098,115.584228 205.207934,118.193654 C204.871522,118.514625 204.619818,118.931153 204.32939,119.303578 C202.451292,122.099216 199.585739,122.194773 196.846038,121.616534 C193.297981,120.866783 190.434848,118.8797 189.40625,115.077044 C189.118243,114.011222 188.600313,112.844944 189.200531,111.673765 Z M195.832031,111.433647 C198.241385,111.469195 200.186856,109.663387 199.985682,107.694061 C199.772674,105.584916 198.615332,104.172499 196.355083,104.051638 C194.234472,103.937886 192.539877,105.644161 192.61798,107.800704 C192.696083,110.066258 194.026198,111.175336 195.832031,111.433647 Z M78.0582715,52.7197759 C75.1802595,47.659452 70.3876274,44.7174594 65.6193234,41.8068674 C62.6245366,39.980803 59.4448563,38.4542519 56,36.6040332 C56.8831094,36.4663537 57.3453429,36.3963063 57.8100093,36.3238434 C66.8965477,38.7513496 74.7326228,43.0073356 79.7247451,51.3115808 C80.8000463,53.1038291 81.7610056,55.0023564 81.8461538,57.8718861 C80.3378128,55.8187714 79.1968258,54.2704814 78.0582715,52.7197759 Z M237.859972,18.4437295 C230.448773,20.3287131 225.805817,25.4184083 222.114825,31.6074778 C220.766006,33.8732903 220.77818,33.882871 219.692308,34.4768683 C222.243864,25.3848762 228.053037,19.3850237 237.236691,16.5898828 C239.101665,15.8018782 240.888728,15.639008 242.461538,17.212622 C240.861946,17.387468 239.247746,17.5048304 237.859972,18.4437295 Z M154.54697,149.652867 C154.937603,149.383437 155.381614,149.165444 155.71159,148.83723 C157.366322,147.188811 160.627261,147.431297 161.362428,145.452214 C162.092742,143.480479 161.168324,140.886607 160.996057,138.564613 C160.964515,138.121279 161.051862,137.665698 161.122225,136.676157 C162.136415,138.865885 162.340224,140.724949 162.143694,142.493387 C161.828276,145.31505 162.922534,146.574021 165.642409,146.627907 C166.217441,146.640154 166.78762,146.752825 167.357798,146.821407 C169.796223,148.144061 172.409341,149.21933 174.153846,151.685836 C172.998931,152.070386 172.406915,150.894693 171.475218,150.877547 C170.351844,150.267657 169.041646,150.297049 167.881878,149.809626 C163.997382,148.178352 160.311843,148.555554 156.847096,150.955927 C156.111929,151.465394 155.204495,151.536425 154.464476,152.009152 C153.314413,152.374106 152.38029,153.388141 150.769231,153.292616 C152.159497,151.952816 153.353233,150.804066 154.54697,149.652867 Z M222.769231,36.7413411 C224.02055,34.2457256 226.267072,34.209133 228.447734,34.7726591 C230.796702,35.3800963 231.477244,37.4170845 231.374797,39.6028826 C231.257715,42.1594858 230.360082,44.538005 229.220966,46.8189439 C228.55262,47.7435169 227.886713,48.6705295 227.02079,49.8683274 C226.203652,48.0582133 227.36716,46.8457784 227.501317,45.5284447 C227.58425,44.7648791 227.89647,44.028148 228.081851,43.2767799 C229.594167,37.2024079 228.947774,36.4144472 222.769231,36.7413411 Z M75.0521598,68.9537367 C71.825693,67.5352717 68.247967,62.0091685 68.3084487,58.539347 C68.3526469,55.9462157 70.0414824,54.1608214 72.6049766,54.1780597 C73.6005987,54.1854475 74.5962207,54.5302133 75.5918428,54.7198345 C76.0245197,56.116136 74.9544586,55.7098049 74.3798823,55.8156972 C70.4834642,56.5347802 70.1159215,57.3917694 71.5581777,61.3565761 C72.5235589,64.0063475 74.4636262,66.1291197 75.0521598,68.9537367 Z M167.218911,128.711305 C167.884587,128.547834 167.443215,127.093426 168.615385,127.518931 C167.906294,130.492654 166.490526,133.00241 163.835055,134.690004 C160.933573,136.336731 158.360106,134.937614 155.755284,133.822167 C154.349163,132.612965 152.943042,131.403763 152,129.764248 C152.118182,129.307492 152.417254,129.170465 152.861038,129.285856 C154.320221,129.858004 155.379032,131.035954 156.695914,131.829268 C160.108713,133.884671 162.453052,133.584173 165.163996,130.692185 C165.815201,129.997434 166.273457,129.103154 167.218911,128.711305 Z M231.71094,49.252669 C233.574459,49.4248647 235.487957,49.1819037 237.253897,50.1042118 C240.000385,51.5383892 241.216551,54.0505584 240.328822,56.6405694 C238.610481,51.9087277 234.609747,50.8118651 230.154438,50.4816269 C230.125879,49.2503102 231.137367,49.540448 231.71094,49.252669 Z M59.6847634,71.4163701 C58.8094569,71.2139793 59.0501072,70.74729 59.3568184,70.185358 C61.0083401,67.1471153 65.446215,66.1684964 69.0394545,68.1066857 C69.8557781,68.5448022 70.6036815,69.1091153 71.3846154,69.6139017 C70.1790045,70.9520619 68.9380039,69.7877196 67.8645147,69.4829429 C64.7124675,68.5828993 62.027565,69.1162585 59.6847634,71.4163701 Z M168.615385,125.888204 C167.575706,126.618019 166.609072,125.820539 165.664352,125.646543 C161.454504,124.875646 157.368834,124.791065 153.494995,126.966011 C153.059158,127.210088 152.564884,127.819073 152,127.106174 C155.722879,123.568261 160.154297,123.152605 164.882767,124.356075 C165.54261,124.525238 166.178104,124.612236 166.835513,124.682317 C167.429615,125.083474 168.021282,125.487047 168.615385,125.888204 Z M110.153846,83.8073362 C114.918436,85.0231919 117.949796,82.4638758 120.615385,78.8042705 C120.385881,83.9180874 114.674589,86.665199 110.153846,83.8073362 Z M188.923077,72.0320285 C191.592315,75.3964391 194.530817,78.0261516 199.384615,76.549155 C195.797535,80.0225036 190.744715,77.724672 188.923077,72.0320285 Z M168.615385,154.675195 C168.03465,155.128045 167.544358,154.719776 167.108808,154.45229 C163.553001,152.274856 160.404184,152.840332 157.576675,155.761566 C157.007841,155.747488 156.665113,155.639554 157.164925,155.020112 C159.81631,151.744575 163.49826,151.150943 167.094527,153.457428 C167.639561,153.804691 168.110812,154.266926 168.615385,154.675195 Z M179.076923,185.545541 C179.072104,185.89031 179.067285,186.232616 179.064876,186.577384 C163.704948,186.759619 148.345019,186.835961 132.98509,186.552758 C132.78511,186.003591 133.095923,185.747477 133.529615,185.565242 C135.257155,185.503676 136.987105,185.447036 138.717054,185.390395 C145.872974,184.922495 153.038531,185.262338 160.19927,185.210623 C163.439913,185.185996 166.687785,184.929883 169.92361,185.390395 C172.973911,185.439648 176.024213,185.493826 179.076923,185.545541 Z M119.330342,180.918448 C113.449846,175.865074 106.448854,175.13477 99.1335245,175.675212 C97.826233,175.771828 96.502212,176.303213 95.3048573,175.315319 C95.0252355,175.269427 94.7312742,175.264596 94.4707718,175.165565 C94.1983199,175.064119 93.9258679,174.832242 94.4588222,174.711472 C102.202194,172.940993 109.795001,173.134224 117.096236,176.638952 C117.743906,176.950537 118.267301,177.532646 118.848054,177.986739 C119.034468,178.170308 119.218493,178.353878 119.404908,178.535032 L120,179.737895 C119.991899,179.824937 119.983722,179.911979 119.97304,179.997897 C120.089699,179.909435 120.222468,179.833457 120.374354,179.772242 C121.646073,180.740328 122.313604,181.87982 121.470664,183.465935 C121.940859,186.548841 121.005341,189.19478 118.922353,191.481007 C116.410586,192.094209 113.898819,193.887943 111.384615,191.483421 C112.139851,190.730198 113.12653,190.75434 114.069356,190.768825 C116.59574,190.802623 118.215842,189.62209 119.024675,187.285165 C119.862743,185.283811 119.078273,183.224517 119.236628,181.199021 C119.264911,181.103141 119.295865,181.009402 119.330342,180.918448 L119.330342,180.918448 Z M81.2326881,176.445871 C78.9676314,175.177566 76.7907808,173.790906 75.0769231,171.768683 C78.3176707,172.21274 80.6528756,174.612918 83.54351,175.813392 C85.3307643,176.442995 86.9730034,177.510758 88.9663366,177.517463 C88.7762376,179.060377 87.7428789,180.030345 86.5632902,180.900463 C84.9742574,185.624301 87.4162986,189.268812 93.5384615,191.313351 C89.4562072,192.271432 85.2862148,188.712507 84.7329779,183.791347 C84.9718203,182.471906 85.2106626,181.150087 85.449505,179.830646 C85.2423458,178.114183 83.1195735,178.696639 82.4883473,177.486557 L81.2307692,176.471419 C81.2313807,176.462835 81.2320204,176.454319 81.2326881,176.445871 Z M110.051925,189.04174 C109.987618,191.000787 110.347261,193.051554 108.789605,194.686053 C103.621239,198.865196 96.8285288,197.188364 95.5804993,191.426462 C95.3828152,190.854975 95.0827165,190.234101 96.1425889,190.243508 C97.2096065,193.942885 99.1316672,195.48096 103.011515,195.558569 C105.717166,195.610309 108.063176,194.958861 108.746734,191.870952 C108.348984,190.798532 108.529996,189.679077 108.510942,188.580788 C108.501415,188.082207 108.922983,187.701216 109.451728,187.788232 C110.15434,187.908174 110.275808,188.423217 110.051925,189.04174 Z M192.575221,193.173035 C191.770887,191.675252 192.319296,190.010229 192,188.450961 C192.202302,188.256667 192.20474,187.152391 192.69709,188.266505 C192.970076,188.886277 193.104132,189.567535 193.299122,190.221739 C193.53311,190.401276 193.764661,190.585732 193.935277,190.824295 C197.38904,195.703771 200.701435,196.057926 204.94247,191.999894 C205.298327,191.242395 205.649309,190.479977 206.002729,189.722478 C206.053914,191.075155 206.105099,192.430292 206.153846,193.785428 C201.369276,198.276317 197.033183,198.082024 192.575221,193.173035 Z M185.615367,183.141226 C183.416607,188.000038 184.198716,191.102858 187.991209,192.586075 C186.213017,193.019593 184.904582,192.223186 183.95277,190.267484 C182.895201,188.097458 183.608445,185.912819 183.765851,183.725745 C185.541583,179.843567 188.227317,176.998909 192.615,176.078292 C193.411866,176.380293 194.474355,175.732452 195.076923,176.743182 C191.141782,177.74417 187.270586,178.830401 185.615367,183.141226 Z M231.483072,343.822162 C204.038196,338.601478 176.254109,338.452989 148.460398,338.641546 C118.520752,338.846602 88.747103,341.35913 59.0937421,345.321193 C58.0496436,345.460254 56.7914326,344.918152 55.9422004,346 L54.2076496,346 C53.926176,344.790875 54.8042774,344.962934 55.5596851,344.82623 C59.5123438,344.09557 63.4553796,343.305986 67.4008211,342.539971 C68.6470032,341.517047 70.1914992,341.342631 71.7071261,341.116362 C85.4752735,339.03516 99.3059706,337.559698 113.199217,336.557986 C129.387556,335.391287 145.587924,334.703053 161.812349,334.978818 C175.520353,335.212158 189.235573,335.631698 202.868998,337.265077 C207.572253,337.698759 212.261074,338.233791 216.921025,338.985663 C221.143129,339.857741 225.396507,340.607257 229.560873,341.745673 C230.576102,342.023795 231.788604,342.127502 232.378014,343.016079 C233.005917,343.965937 232.276972,344.062572 231.483072,343.822162 Z M66.4673561,302.595001 C67.5891786,312.146458 68.6224991,321.702752 68.2182603,331.353376 C68.1321503,333.426204 67.8690362,335.44824 67.089262,337.380783 C66.3668944,314.565161 62.6067558,292.267141 56.0193374,270.43835 C55.3400248,268.179282 53.8187474,266.208039 53.8211393,263.728869 C53.7613407,260.429758 51.986517,257.544246 51.6923077,254.266904 C53.7111098,256.973432 54.4765324,260.301567 56.0289052,263.233035 C57.3875303,264.195678 57.6745638,265.775091 58.1768724,267.197288 C61.893956,277.733157 64.5466237,288.554433 66.5845614,299.537761 C66.7711332,300.54636 67.1992915,301.605752 66.4673561,302.595001 Z M250.958418,252.123397 C223.72922,252.232479 196.50484,252.458436 169.275643,252.414284 C141.179351,252.370131 113.080649,252.183133 84.984357,251.811733 C72.8691104,251.650706 60.7514553,251.367611 48.6313915,251.429944 C42.6773379,251.18321 36.7232843,250.931281 30.7692308,250.679353 C34.6085355,249.471654 38.5730874,249.746957 42.4822415,249.707999 C100.02605,249.141809 157.572267,249.287252 215.113666,249.767735 C235.30735,249.936553 255.501033,250.52352 275.692308,250.918295 C275.316566,252.546741 274.124311,251.63772 273.358376,251.676678 C268.403891,251.923412 263.434954,251.393583 258.482877,251.972759 C255.973118,252.024703 253.465768,252.07405 250.958418,252.123397 Z M234.878505,339.843416 C233.647214,339.460545 233.893947,338.355274 233.751601,337.452276 C232.574877,330.00675 232.797885,322.527513 233.20357,315.038643 C232.437276,314.246412 232.600973,313.27599 232.707733,312.320015 C233.979354,300.908519 236.733743,289.824511 239.867721,278.819966 C240.126316,277.907336 240.399145,276.958585 241.267454,276.385482 C242.529585,273.580166 243.272155,270.601474 244.121485,267.658902 C244.111995,267.028007 244.055057,266.37544 244.709847,265.982937 C246.031289,262.886253 247.329008,259.777529 248.709761,256.707334 C248.91379,256.249814 248.859224,255.301064 249.846154,255.534639 C246.693197,267.89007 242.662441,279.992661 239.770451,292.425147 C236.138264,308.033781 234.185755,323.789303 234.878505,339.843416 Z"></path>
</svg>
