<?xml version="1.0" standalone="no"?>
<!DOCTYPE svg PUBLIC "-//W3C//DTD SVG 20010904//EN"
        "http://www.w3.org/TR/2001/REC-SVG-20010904/DTD/svg10.dtd">
<svg version="1.0" xmlns="http://www.w3.org/2000/svg"
     width="512.000000pt" height="512.000000pt" viewBox="0 0 512.000000 512.000000"
     preserveAspectRatio="xMidYMid meet">

    <g transform="translate(0.000000,512.000000) scale(0.100000,-0.100000)"
       fill="#000000" stroke="none">
        <path d="M2660 5110 c-707 -87 -1292 -562 -1514 -1230 -96 -289 -116 -624 -55
-925 44 -216 145 -461 265 -641 l55 -84 -77 -111 c-115 -166 -135 -253 -93
-395 l21 -71 -377 -539 c-207 -296 -385 -554 -395 -574 -91 -180 -10 -410 178
-502 60 -30 75 -33 157 -33 85 0 96 3 165 37 41 20 87 49 101 65 34 35 287
396 310 441 41 80 -50 152 -110 88 -12 -13 -84 -112 -161 -221 -98 -141 -150
-206 -180 -226 -147 -99 -345 8 -345 186 0 35 7 73 16 91 9 17 178 262 375
544 197 283 362 518 365 523 7 10 369 -238 369 -253 0 -5 -58 -92 -130 -194
-138 -197 -150 -226 -110 -266 23 -23 68 -26 93 -8 10 7 77 99 151 203 l133
190 104 6 c172 10 234 51 366 242 63 91 79 108 97 103 142 -34 211 -41 421
-41 173 0 241 4 320 19 495 93 912 365 1187 776 274 410 368 910 262 1390 -29
130 -48 160 -100 160 -41 0 -78 -42 -71 -80 3 -14 14 -68 26 -120 34 -156 46
-328 32 -477 -14 -159 -32 -246 -81 -394 -186 -562 -649 -973 -1240 -1100
-143 -31 -494 -34 -635 -6 -322 66 -609 215 -837 435 -273 264 -432 568 -493
943 -20 120 -23 364 -6 479 40 270 152 543 313 762 81 110 251 277 368 361
273 194 629 307 965 307 583 -1 1125 -314 1427 -823 29 -49 60 -93 69 -98 47
-25 109 11 109 62 0 72 -196 345 -364 507 -262 252 -589 416 -951 478 -109 18
-392 26 -495 14z m-973 -3170 c52 -43 133 -104 178 -134 80 -53 275 -155 358
-186 l39 -15 -57 -80 c-78 -109 -93 -125 -143 -147 -52 -24 -140 -25 -183 -4
-17 9 -125 82 -241 162 -244 172 -263 193 -263 304 0 71 9 92 92 208 l45 63
40 -46 c22 -25 83 -81 135 -125z"/>
        <path d="M2716 4660 c-528 -61 -973 -420 -1141 -923 -48 -142 -65 -255 -65
-420 0 -148 13 -258 35 -293 19 -30 59 -38 95 -19 37 19 44 47 31 121 -19 99
-14 313 10 427 71 351 296 652 619 826 85 45 217 91 335 117 109 23 331 23
448 0 493 -96 868 -473 962 -968 20 -107 21 -317 1 -428 -91 -511 -510 -912
-1023 -981 -132 -17 -336 -7 -455 25 -313 81 -588 286 -745 558 -65 112 -97
130 -149 85 -40 -35 -35 -68 24 -167 194 -325 515 -554 892 -636 119 -26 419
-27 538 -1 272 60 497 181 687 372 263 262 398 591 396 965 -1 160 -19 277
-67 420 -70 208 -183 388 -343 543 -248 240 -547 368 -895 381 -61 3 -147 1
-190 -4z"/>
        <path d="M1992 3587 c-48 -51 -13 -115 90 -166 51 -26 73 -31 133 -31 60 0 82
5 133 31 103 51 135 108 91 163 -29 37 -68 34 -125 -9 -39 -30 -53 -35 -99
-35 -46 0 -60 5 -99 35 -54 41 -93 45 -124 12z"/>
        <path d="M3281 3584 c-12 -15 -21 -33 -21 -41 0 -45 61 -104 142 -138 49 -20
152 -19 212 1 67 23 136 90 136 132 0 65 -83 98 -126 51 -55 -61 -156 -66
-219 -11 -47 42 -94 44 -124 6z"/>
        <path d="M2796 3410 c-26 -5 -72 -21 -102 -36 -62 -31 -160 -128 -170 -169
-10 -40 23 -79 69 -83 33 -3 42 2 84 48 62 68 113 93 183 93 69 0 119 -25 185
-92 56 -58 99 -67 135 -31 31 31 25 72 -17 123 -101 117 -230 169 -367 147z"/>
    </g>
</svg>
